<svg id="svg" version="1.1" width="400" height="400" viewBox="0 0 400 400" xmlns="http://www.w3.org/2000/svg" xmlns:xlink="http://www.w3.org/1999/xlink" ><g id="svgg"><path id="path0" d="M0.000 200.000 L 0.000 400.000 200.000 400.000 L 400.000 400.000 400.000 200.000 L 400.000 0.000 200.000 0.000 L 0.000 0.000 0.000 200.000 M376.586 34.213 C 378.682 35.441,381.748 38.645,382.662 40.561 C 383.462 42.238,382.657 43.786,379.392 46.856 C 375.832 50.202,378.071 49.962,350.000 50.000 C 327.128 50.031,324.890 50.092,323.706 50.724 C 321.488 51.907,318.236 55.416,316.613 58.377 C 314.744 61.785,311.526 64.962,308.094 66.786 C 303.903 69.013,298.935 74.808,300.728 75.377 C 303.304 76.195,305.552 81.194,306.404 88.000 C 306.997 92.731,307.226 92.995,311.244 93.582 C 319.495 94.789,323.158 98.803,323.194 106.678 C 323.204 108.901,324.507 109.827,328.400 110.380 C 338.287 111.783,340.000 115.034,340.000 132.391 C 340.000 143.449,339.728 142.851,345.171 143.734 C 350.582 144.612,353.045 145.957,354.518 148.838 C 355.231 150.231,355.882 152.463,356.266 154.829 C 357.149 160.272,356.551 160.000,367.609 160.000 C 390.501 160.000,390.000 159.105,390.000 200.000 C 390.000 241.507,390.767 240.292,364.800 239.913 C 347.757 239.664,345.478 238.453,343.775 228.745 C 342.970 224.151,342.362 223.437,338.950 223.075 C 330.812 222.210,326.800 217.917,326.800 210.075 C 326.800 208.213,325.311 206.575,324.383 207.415 C 323.706 208.028,323.646 209.319,323.494 226.336 C 323.255 253.027,322.550 254.764,311.294 256.410 C 305.716 257.226,306.010 259.516,311.800 260.347 C 321.556 261.747,323.600 265.803,323.600 283.767 C 323.600 293.368,323.301 292.787,328.745 293.762 C 339.491 295.685,339.800 296.558,339.800 325.000 C 339.800 353.271,339.465 354.250,329.127 356.187 C 323.757 357.194,238.936 356.918,235.400 355.883 C 226.916 353.399,226.701 352.481,226.507 318.008 C 226.374 294.315,226.288 291.339,225.717 290.708 C 224.761 289.652,175.496 289.608,174.331 290.662 C 173.306 291.590,173.237 309.123,174.240 313.690 C 174.866 316.540,174.924 316.629,176.886 317.801 C 179.076 319.110,181.405 321.528,182.584 323.719 L 183.337 325.117 182.034 327.147 C 180.393 329.705,178.801 331.103,175.118 333.223 C 171.710 335.185,169.552 337.099,167.949 339.578 L 166.800 341.357 166.800 349.800 L 166.800 358.243 165.663 360.022 C 164.076 362.502,161.046 365.209,158.092 366.783 C 154.989 368.437,151.937 371.528,150.031 374.945 C 147.012 380.358,142.847 383.752,140.561 382.662 C 134.632 379.834,133.200 376.650,133.200 366.289 L 133.200 357.720 131.991 356.050 C 130.283 353.694,127.896 351.627,125.000 350.000 C 122.104 348.373,119.717 346.306,118.009 343.950 L 116.800 342.280 116.800 333.631 L 116.800 324.982 115.391 324.223 C 112.807 322.832,111.461 319.711,110.403 312.660 C 109.554 307.003,109.601 307.057,104.829 306.273 C 97.307 305.038,95.021 302.797,93.745 295.407 C 91.809 284.186,96.895 276.852,106.646 276.806 C 107.331 276.803,108.391 276.407,109.002 275.927 L 110.111 275.054 109.033 274.127 C 108.398 273.581,107.430 273.198,106.678 273.194 C 98.835 273.158,94.823 269.524,93.597 261.348 C 92.992 257.311,92.677 256.991,88.756 256.418 C 77.448 254.764,76.746 253.044,76.506 226.400 C 76.363 210.515,76.261 208.111,75.709 207.500 C 75.144 206.875,74.165 206.800,66.600 206.800 C 56.645 206.800,57.116 206.590,56.403 211.348 C 54.895 221.400,51.954 223.113,35.564 223.486 C 10.648 224.053,10.019 223.277,10.007 191.935 C 9.996 163.760,10.657 161.962,21.600 160.367 C 26.621 159.635,26.291 160.409,26.491 148.874 C 26.795 131.286,28.649 128.020,38.950 126.925 C 42.362 126.563,42.970 125.849,43.775 121.255 C 45.124 113.565,47.837 111.092,55.932 110.176 C 59.028 109.826,59.808 109.026,60.194 105.805 C 61.375 95.958,67.742 91.804,78.683 93.743 C 86.427 95.115,88.907 97.830,89.825 105.939 C 90.440 111.371,92.673 110.814,93.678 104.977 C 95.407 94.927,98.643 93.242,116.271 93.214 L 125.142 93.200 125.971 92.146 C 126.427 91.566,126.800 90.567,126.800 89.925 C 126.800 82.083,130.812 77.790,138.950 76.925 C 142.362 76.563,142.970 75.849,143.775 71.255 C 145.124 63.565,147.837 61.092,155.932 60.176 C 159.028 59.826,159.808 59.026,160.194 55.805 C 161.684 43.382,162.658 43.091,202.091 43.306 C 235.062 43.487,237.769 43.850,240.767 48.500 L 241.734 50.000 250.174 50.000 L 258.614 50.000 260.207 48.945 C 262.951 47.128,264.392 45.516,266.595 41.800 C 268.831 38.029,270.869 35.764,273.457 34.173 L 275.000 33.225 324.929 33.212 L 374.858 33.200 376.586 34.213 M241.045 86.500 C 239.547 93.333,240.079 93.930,246.468 92.586 C 248.074 92.248,249.524 91.836,249.689 91.671 C 250.643 90.717,243.829 83.600,241.962 83.600 C 241.807 83.600,241.394 84.905,241.045 86.500 M286.318 107.491 L 283.637 108.104 285.435 109.752 C 287.665 111.796,288.970 115.280,289.664 121.042 C 290.351 126.745,289.686 126.400,300.000 126.400 C 307.994 126.400,308.730 126.341,309.359 125.645 C 310.240 124.672,308.615 123.203,306.646 123.194 C 298.837 123.157,294.822 119.512,293.597 111.348 C 292.879 106.558,292.133 106.162,286.318 107.491 M91.081 140.710 C 89.420 142.546,90.392 143.035,96.800 143.584 C 99.770 143.839,103.609 144.335,105.330 144.688 L 108.461 145.329 110.293 143.496 L 112.126 141.663 110.563 140.938 C 108.111 139.801,92.074 139.614,91.081 140.710 M207.401 157.599 C 206.703 158.370,206.703 158.455,207.408 160.018 C 208.396 162.208,208.427 162.210,210.384 160.216 L 212.100 158.467 210.466 157.634 C 208.454 156.607,208.300 156.605,207.401 157.599 M290.804 157.395 C 289.748 158.668,291.533 160.239,292.704 159.067 C 293.294 158.477,293.286 158.358,292.611 157.612 C 291.734 156.643,291.456 156.610,290.804 157.395 M307.196 191.005 C 306.312 192.070,308.111 193.660,309.092 192.680 C 309.629 192.142,309.688 191.828,309.350 191.292 C 308.759 190.354,307.838 190.231,307.196 191.005 M140.182 240.419 C 138.944 241.711,138.944 241.711,140.949 242.854 C 142.325 243.638,143.445 242.034,142.627 240.452 C 141.826 238.903,141.637 238.900,140.182 240.419 M257.459 274.335 C 255.854 276.108,257.396 276.427,266.997 276.308 C 276.303 276.193,277.438 275.932,276.028 274.234 C 275.171 273.201,258.402 273.293,257.459 274.335 " stroke="none" fill="#ffffff" fill-rule="evenodd"></path><path id="path1" d="M289.046 249.049 C 286.406 250.429,283.376 253.543,282.186 256.099 L 281.208 258.200 282.304 258.983 C 284.143 260.296,289.496 265.607,290.629 267.242 L 291.698 268.784 292.396 267.892 C 293.241 266.814,294.999 262.020,295.374 259.777 C 295.885 256.710,293.173 248.358,291.587 248.116 C 291.264 248.067,290.121 248.487,289.046 249.049 " stroke="none" fill="#31210f" fill-rule="evenodd"></path><path id="path2" d="M173.245 56.554 L 171.524 58.308 172.008 60.654 C 172.781 64.398,173.702 65.799,176.585 67.620 C 179.711 69.594,181.037 71.061,183.400 75.157 C 185.326 78.498,188.247 81.559,190.561 82.662 C 192.837 83.747,197.011 80.359,200.000 75.000 C 202.989 69.641,207.163 66.253,209.439 67.338 C 211.355 68.252,214.559 71.318,215.787 73.414 L 216.800 75.142 216.800 100.024 C 216.800 124.784,216.796 124.913,215.938 126.353 C 214.407 128.926,211.881 131.221,208.154 133.426 C 206.149 134.612,203.896 136.262,203.147 137.091 C 197.854 142.958,198.947 143.763,215.000 145.810 C 232.976 148.103,236.000 151.109,236.000 166.693 L 236.000 175.286 234.810 177.778 C 231.663 184.374,228.068 186.000,216.638 186.000 C 201.117 186.000,198.100 182.959,195.810 165.000 C 194.437 154.236,193.832 151.754,192.260 150.449 C 190.977 149.385,185.859 153.556,184.017 157.166 C 183.220 158.729,183.200 159.381,183.200 183.706 L 183.200 208.643 182.051 210.422 C 180.445 212.907,178.288 214.815,174.848 216.796 C 170.738 219.163,169.286 220.602,166.890 224.683 C 164.645 228.508,162.821 230.521,159.781 232.524 C 157.357 234.123,156.416 235.956,154.819 242.190 C 153.000 249.293,151.098 251.881,146.404 253.638 C 141.285 255.555,132.369 254.358,126.529 250.970 C 124.280 249.665,108.619 249.443,107.502 250.700 C 103.450 255.259,105.029 260.716,110.869 262.335 C 118.992 264.588,123.101 271.487,120.644 278.748 C 118.978 283.674,116.233 286.177,110.869 287.665 C 108.398 288.350,105.200 290.633,105.200 291.713 C 105.200 292.851,108.416 295.039,111.093 295.723 C 116.561 297.119,119.833 300.554,121.191 306.321 C 121.504 307.653,122.272 309.178,123.254 310.421 L 124.819 312.400 141.775 312.400 L 158.732 312.400 160.126 310.500 C 161.741 308.300,161.827 307.828,162.428 297.847 C 163.136 286.100,164.783 282.447,170.601 279.723 L 173.000 278.600 199.429 278.489 L 225.859 278.378 228.716 279.345 C 237.976 282.478,238.400 284.118,238.400 316.776 L 238.400 341.770 240.083 343.485 L 241.767 345.200 283.400 345.200 L 325.033 345.200 326.717 343.485 L 328.400 341.770 328.400 324.968 L 328.400 308.167 326.700 306.554 C 325.464 305.382,324.400 304.799,322.800 304.417 C 314.047 302.331,311.613 297.758,311.605 283.389 L 311.600 274.978 310.389 273.652 C 309.723 272.923,308.058 271.748,306.689 271.042 C 298.348 266.739,298.153 250.062,306.395 245.889 C 307.602 245.277,309.267 244.116,310.095 243.307 L 311.600 241.838 311.600 224.857 L 311.600 207.876 310.083 206.438 C 308.936 205.350,307.863 204.821,305.677 204.266 C 291.495 200.661,292.063 181.994,306.453 178.795 C 312.521 177.446,319.202 182.160,321.007 189.064 C 321.983 192.799,323.861 194.800,327.092 195.551 C 333.078 196.941,336.532 200.462,337.976 206.645 C 338.607 209.350,340.637 211.365,343.400 212.030 C 349.550 213.510,353.009 216.890,354.417 222.800 C 354.799 224.400,355.382 225.464,356.554 226.700 L 358.167 228.400 366.600 228.400 L 375.033 228.400 376.717 226.685 L 378.400 224.970 378.400 200.000 L 378.400 175.030 376.717 173.315 L 375.033 171.600 366.417 171.595 C 352.219 171.587,347.825 169.354,345.723 161.077 C 344.715 157.111,342.889 155.285,338.923 154.277 C 330.646 152.175,328.413 147.781,328.405 133.583 L 328.400 124.967 326.651 123.250 L 324.903 121.534 323.473 122.789 C 322.439 123.698,321.867 124.674,321.403 126.322 C 318.608 136.254,314.805 138.400,300.000 138.400 C 288.898 138.400,284.800 137.240,281.594 133.192 C 280.452 131.750,278.400 126.753,278.400 125.414 C 278.400 125.134,277.672 123.990,276.782 122.873 L 275.164 120.841 265.882 120.720 L 256.600 120.600 254.083 119.438 C 249.957 117.532,247.363 114.128,245.792 108.554 C 245.452 107.346,241.938 105.132,239.142 104.364 C 230.210 101.910,227.898 97.109,228.732 82.746 C 229.374 71.668,229.358 58.745,228.700 57.946 C 228.425 57.612,227.454 56.767,226.542 56.069 L 224.885 54.800 199.926 54.800 L 174.967 54.800 173.245 56.554 M156.571 73.277 C 155.383 74.533,154.800 75.597,154.417 77.200 C 153.004 83.127,149.499 86.541,143.355 87.976 C 138.795 89.041,137.442 92.215,139.534 96.945 C 140.923 100.084,140.633 100.000,150.094 100.000 L 158.530 100.000 160.444 98.772 C 166.053 95.173,166.842 93.174,166.708 82.916 L 166.600 74.631 165.240 73.715 C 163.900 72.812,162.355 72.288,159.600 71.802 C 158.331 71.577,158.048 71.715,156.571 73.277 M289.385 89.625 L 287.400 91.649 289.200 93.213 C 291.403 95.127,291.897 95.157,293.522 93.481 C 295.116 91.835,295.113 91.724,293.382 89.458 C 291.638 87.174,291.794 87.167,289.385 89.625 M73.350 106.499 C 72.132 107.778,71.560 108.845,71.040 110.800 C 69.451 116.779,65.680 120.248,59.516 121.405 C 57.394 121.803,55.076 124.437,54.417 127.200 C 53.009 133.110,49.550 136.490,43.400 137.970 C 42.058 138.293,40.906 138.931,39.900 139.907 L 38.400 141.362 38.400 149.790 C 38.400 161.122,37.264 165.181,33.192 168.406 C 31.767 169.535,26.758 171.600,25.445 171.600 C 25.182 171.600,24.209 172.372,23.283 173.315 L 21.600 175.030 21.600 191.668 L 21.600 208.306 23.247 209.953 L 24.894 211.600 33.364 211.600 L 41.833 211.600 43.456 209.900 C 44.701 208.595,45.241 207.576,45.779 205.514 C 47.964 197.153,51.921 195.200,66.681 195.200 C 78.755 195.200,81.787 196.050,85.271 200.413 C 88.093 203.948,88.187 204.683,88.316 224.200 L 88.432 241.799 89.916 243.335 C 91.577 245.054,93.622 245.177,97.044 243.763 C 100.269 242.431,100.000 244.903,100.000 216.631 L 100.000 191.386 101.055 189.793 C 102.871 187.050,104.483 185.609,108.200 183.404 C 111.890 181.215,114.413 178.915,115.943 176.345 L 116.810 174.889 114.612 172.880 C 113.383 171.757,111.573 170.572,110.507 170.193 C 103.721 167.779,99.813 164.677,98.200 160.425 C 97.115 157.565,94.518 155.840,89.026 154.332 C 75.984 150.749,74.939 134.191,87.458 129.489 C 91.937 127.808,114.231 128.156,121.246 130.018 C 125.153 131.055,128.966 129.884,131.764 126.787 L 133.200 125.198 133.200 116.628 L 133.200 108.058 132.145 107.228 C 129.896 105.459,127.558 105.081,117.747 104.898 L 108.495 104.726 106.647 106.574 C 105.631 107.590,104.800 108.692,104.800 109.023 C 104.800 109.354,104.427 110.734,103.970 112.089 C 99.426 125.579,81.263 123.737,78.595 109.516 C 78.423 108.599,77.734 107.513,76.649 106.448 L 74.968 104.798 73.350 106.499 M306.478 106.519 C 304.859 108.190,304.870 108.315,306.807 110.206 L 308.413 111.775 310.094 110.094 L 311.775 108.413 310.206 106.807 C 308.308 104.862,308.100 104.846,306.478 106.519 M295.292 145.996 C 308.652 150.122,307.406 168.124,293.547 171.205 C 289.468 172.112,283.971 169.762,281.190 165.923 C 273.945 155.921,283.538 142.365,295.292 145.996 M293.275 250.403 C 294.739 253.323,295.719 257.704,295.374 259.777 C 294.999 262.020,293.241 266.814,292.396 267.892 L 291.698 268.784 290.629 267.242 C 289.496 265.607,284.143 260.296,282.304 258.983 L 281.208 258.200 282.186 256.099 C 283.376 253.543,286.406 250.429,289.046 249.049 C 291.624 247.701,291.978 247.814,293.275 250.403 M276.728 262.887 C 279.135 264.541,285.452 270.854,287.101 273.254 L 288.375 275.108 287.650 277.721 C 286.133 283.193,282.782 286.432,277.231 287.792 C 272.884 288.858,257.503 288.524,254.213 287.293 C 244.682 283.726,242.331 271.811,249.856 265.205 C 253.175 262.291,255.998 261.679,266.328 261.636 L 274.856 261.600 276.728 262.887 " stroke="none" fill="#8b5c29" fill-rule="evenodd"></path><path id="path3" d="M172.038 49.893 C 169.092 51.626,166.998 54.056,165.232 57.795 C 163.475 61.512,161.724 63.252,157.711 65.265 C 153.439 67.408,151.058 69.692,149.020 73.600 C 147.037 77.405,143.871 80.570,140.261 82.359 C 136.628 84.158,133.988 86.859,132.220 90.585 C 128.825 97.740,127.513 98.400,116.686 98.400 C 105.582 98.400,102.016 100.143,98.955 107.064 C 97.780 109.721,92.980 114.800,91.645 114.800 C 90.249 114.800,85.912 110.166,84.382 107.040 C 82.750 103.706,80.173 100.985,77.173 99.427 L 74.946 98.271 72.773 99.435 C 69.790 101.034,67.226 103.757,65.613 107.040 C 63.845 110.637,60.637 113.845,57.040 115.613 C 53.475 117.364,50.970 119.859,49.020 123.600 C 47.037 127.405,43.871 130.570,40.261 132.359 C 33.112 135.901,31.600 139.018,31.600 150.222 L 31.600 158.687 30.250 160.394 C 28.537 162.558,26.195 164.414,23.508 165.735 C 20.534 167.197,18.524 168.981,16.741 171.740 L 15.200 174.124 15.204 191.562 L 15.208 209.000 16.377 211.039 C 19.824 217.049,22.940 218.400,33.357 218.400 C 44.186 218.400,47.325 216.884,50.816 209.968 C 52.395 206.839,53.988 204.828,56.330 203.004 L 58.131 201.600 66.630 201.600 L 75.128 201.600 77.174 203.217 C 78.299 204.107,79.755 205.574,80.410 206.477 L 81.600 208.120 81.600 224.873 L 81.600 241.627 82.633 243.666 C 84.174 246.707,86.938 249.221,91.111 251.376 C 95.366 253.574,96.610 254.844,98.834 259.268 C 100.839 263.255,103.402 265.888,107.086 267.743 C 109.848 269.134,112.613 271.471,114.281 273.826 L 115.150 275.053 113.475 277.101 C 111.321 279.736,109.988 280.798,106.850 282.378 C 103.770 283.929,100.837 286.764,99.420 289.560 L 98.374 291.625 99.165 293.413 C 100.352 296.098,103.716 299.424,106.669 300.833 C 110.111 302.476,113.694 305.864,115.020 308.729 C 117.967 315.099,119.388 317.072,122.781 319.500 L 124.597 320.800 141.491 320.800 C 160.120 320.800,160.101 320.802,163.342 318.226 C 167.153 315.195,168.084 311.975,168.380 300.795 C 168.653 290.458,168.645 290.484,172.650 286.824 L 174.864 284.800 199.932 284.804 L 225.000 284.809 226.948 286.352 C 228.020 287.201,229.505 288.665,230.248 289.604 L 231.600 291.313 231.600 316.470 L 231.600 341.627 232.633 343.666 C 233.954 346.272,236.928 349.246,239.534 350.567 L 241.573 351.600 283.403 351.600 C 323.779 351.600,325.283 351.573,326.716 350.837 C 329.567 349.370,331.500 347.658,333.144 345.142 L 334.800 342.607 334.800 325.000 L 334.800 307.393 333.144 304.858 C 331.407 302.201,329.539 300.602,326.200 298.916 C 323.600 297.603,321.009 295.481,319.558 293.479 L 318.400 291.880 318.400 283.484 C 318.400 272.686,316.938 269.517,310.335 265.998 C 307.430 264.449,305.935 262.970,304.547 260.267 L 303.553 258.335 304.422 256.667 C 305.945 253.746,307.617 252.003,310.098 250.750 C 313.034 249.268,315.985 246.392,317.367 243.666 L 318.400 241.627 318.400 224.462 C 318.400 204.062,318.499 203.617,323.413 201.996 C 325.862 201.188,329.738 204.562,332.364 209.789 C 334.096 213.234,336.807 215.930,340.261 217.641 C 343.668 219.329,347.113 222.662,348.718 225.824 C 350.613 229.555,352.125 231.357,354.858 233.144 L 357.393 234.800 366.635 234.800 L 375.876 234.800 378.238 233.257 C 380.939 231.493,381.818 230.594,383.558 227.822 L 384.800 225.843 384.800 199.984 L 384.800 174.124 383.257 171.762 C 381.493 169.061,380.594 168.182,377.822 166.442 L 375.843 165.200 367.182 165.200 L 358.520 165.200 356.948 164.061 C 354.612 162.369,352.032 159.275,350.977 156.899 C 349.669 153.955,346.397 150.630,343.402 149.201 C 340.652 147.888,337.652 145.417,335.939 143.052 L 334.800 141.480 334.800 132.802 L 334.800 124.124 333.270 121.756 C 330.987 118.225,327.709 115.763,324.000 114.796 C 321.395 114.116,319.785 112.736,318.998 110.507 C 316.462 103.321,312.871 99.635,306.817 98.005 C 304.207 97.302,302.701 95.559,301.627 92.000 C 299.082 83.568,293.619 78.299,289.158 79.973 C 275.714 85.018,276.713 98.051,290.800 101.399 C 295.689 102.560,297.162 103.689,298.039 106.946 C 299.632 112.862,303.377 116.482,310.507 118.998 C 316.100 120.972,316.052 125.772,310.396 130.248 L 308.687 131.600 300.000 131.600 L 291.313 131.600 289.604 130.248 C 287.812 128.830,284.812 125.292,284.804 124.589 C 284.779 122.112,280.160 115.756,276.834 113.622 L 274.930 112.400 266.456 112.400 L 257.982 112.400 256.224 110.779 C 255.078 109.723,254.210 108.446,253.733 107.113 C 252.270 103.030,248.885 100.233,243.884 98.977 C 241.142 98.288,237.941 95.925,235.938 93.113 C 234.836 91.565,234.868 90.770,236.414 81.437 C 237.888 72.533,238.150 59.880,236.913 57.274 C 235.836 55.004,232.076 51.554,228.985 50.000 L 226.200 48.600 200.400 48.493 L 174.600 48.386 172.038 49.893 M226.542 56.069 C 227.454 56.767,228.425 57.612,228.700 57.946 C 229.358 58.745,229.374 71.668,228.732 82.746 C 227.898 97.109,230.210 101.910,239.142 104.364 C 241.938 105.132,245.452 107.346,245.792 108.554 C 247.363 114.128,249.957 117.532,254.083 119.438 L 256.600 120.600 265.882 120.720 L 275.164 120.841 276.782 122.873 C 277.672 123.990,278.400 125.134,278.400 125.414 C 278.400 126.753,280.452 131.750,281.594 133.192 C 284.800 137.240,288.898 138.400,300.000 138.400 C 314.805 138.400,318.608 136.254,321.403 126.322 C 321.867 124.674,322.439 123.698,323.473 122.789 L 324.903 121.534 326.651 123.250 L 328.400 124.967 328.405 133.583 C 328.413 147.781,330.646 152.175,338.923 154.277 C 342.889 155.285,344.715 157.111,345.723 161.077 C 347.825 169.354,352.219 171.587,366.417 171.595 L 375.033 171.600 376.717 173.315 L 378.400 175.030 378.400 200.000 L 378.400 224.970 376.717 226.685 L 375.033 228.400 366.600 228.400 L 358.167 228.400 356.554 226.700 C 355.382 225.464,354.799 224.400,354.417 222.800 C 353.009 216.890,349.550 213.510,343.400 212.030 C 340.637 211.365,338.607 209.350,337.976 206.645 C 336.532 200.462,333.078 196.941,327.092 195.551 C 323.861 194.800,321.983 192.799,321.007 189.064 C 319.202 182.160,312.521 177.446,306.453 178.795 C 292.063 181.994,291.495 200.661,305.677 204.266 C 307.863 204.821,308.936 205.350,310.083 206.438 L 311.600 207.876 311.600 224.857 L 311.600 241.838 310.095 243.307 C 309.267 244.116,307.602 245.277,306.395 245.889 C 298.153 250.062,298.348 266.739,306.689 271.042 C 308.058 271.748,309.723 272.923,310.389 273.652 L 311.600 274.978 311.605 283.389 C 311.613 297.758,314.047 302.331,322.800 304.417 C 324.400 304.799,325.464 305.382,326.700 306.554 L 328.400 308.167 328.400 324.968 L 328.400 341.770 326.717 343.485 L 325.033 345.200 283.400 345.200 L 241.767 345.200 240.083 343.485 L 238.400 341.770 238.400 316.776 C 238.400 284.118,237.976 282.478,228.716 279.345 L 225.859 278.378 199.429 278.489 L 173.000 278.600 170.601 279.723 C 164.783 282.447,163.136 286.100,162.428 297.847 C 161.827 307.828,161.741 308.300,160.126 310.500 L 158.732 312.400 141.775 312.400 L 124.819 312.400 123.254 310.421 C 122.272 309.178,121.504 307.653,121.191 306.321 C 119.833 300.554,116.561 297.119,111.093 295.723 C 108.416 295.039,105.200 292.851,105.200 291.713 C 105.200 290.633,108.398 288.350,110.869 287.665 C 116.233 286.177,118.978 283.674,120.644 278.748 C 123.101 271.487,118.992 264.588,110.869 262.335 C 105.029 260.716,103.450 255.259,107.502 250.700 C 108.619 249.443,124.280 249.665,126.529 250.970 C 132.369 254.358,141.285 255.555,146.404 253.638 C 151.098 251.881,153.000 249.293,154.819 242.190 C 156.416 235.956,157.357 234.123,159.781 232.524 C 162.821 230.521,164.645 228.508,166.890 224.683 C 169.286 220.602,170.738 219.163,174.848 216.796 C 178.288 214.815,180.445 212.907,182.051 210.422 L 183.200 208.643 183.200 183.706 C 183.200 159.381,183.220 158.729,184.017 157.166 C 185.859 153.556,190.977 149.385,192.260 150.449 C 193.832 151.754,194.437 154.236,195.810 165.000 C 198.100 182.959,201.117 186.000,216.638 186.000 C 228.068 186.000,231.663 184.374,234.810 177.778 L 236.000 175.286 236.000 166.693 C 236.000 151.109,232.976 148.103,215.000 145.810 C 198.947 143.763,197.854 142.958,203.147 137.091 C 203.896 136.262,206.149 134.612,208.154 133.426 C 211.881 131.221,214.407 128.926,215.938 126.353 C 216.796 124.913,216.800 124.784,216.800 100.024 L 216.800 75.142 215.787 73.414 C 214.559 71.318,211.355 68.252,209.439 67.338 C 207.163 66.253,202.989 69.641,200.000 75.000 C 197.011 80.359,192.837 83.747,190.561 82.662 C 188.247 81.559,185.326 78.498,183.400 75.157 C 181.037 71.061,179.711 69.594,176.585 67.620 C 173.702 65.799,172.781 64.398,172.008 60.654 L 171.524 58.308 173.245 56.554 L 174.967 54.800 199.926 54.800 L 224.885 54.800 226.542 56.069 M162.440 72.424 C 163.231 72.630,164.491 73.211,165.240 73.715 L 166.600 74.631 166.708 82.916 C 166.842 93.174,166.053 95.173,160.444 98.772 L 158.530 100.000 150.094 100.000 C 140.633 100.000,140.923 100.084,139.534 96.945 C 137.442 92.215,138.795 89.041,143.355 87.976 C 149.499 86.541,153.004 83.127,154.417 77.200 C 154.800 75.597,155.383 74.533,156.571 73.277 C 158.327 71.420,158.493 71.396,162.440 72.424 M293.382 89.458 C 295.113 91.724,295.116 91.835,293.522 93.481 C 291.897 95.157,291.403 95.127,289.200 93.213 L 287.400 91.649 289.385 89.625 C 291.794 87.167,291.638 87.174,293.382 89.458 M78.595 109.516 C 81.263 123.737,99.426 125.579,103.970 112.089 C 104.427 110.734,104.800 109.354,104.800 109.023 C 104.800 108.692,105.631 107.590,106.647 106.574 L 108.495 104.726 117.747 104.898 C 127.558 105.081,129.896 105.459,132.145 107.228 L 133.200 108.058 133.200 116.628 L 133.200 125.198 131.764 126.787 C 128.966 129.884,125.153 131.055,121.246 130.018 C 114.231 128.156,91.937 127.808,87.458 129.489 C 74.939 134.191,75.984 150.749,89.026 154.332 C 94.518 155.840,97.115 157.565,98.200 160.425 C 99.813 164.677,103.721 167.779,110.507 170.193 C 111.573 170.572,113.383 171.757,114.612 172.880 L 116.810 174.889 115.943 176.345 C 114.413 178.915,111.890 181.215,108.200 183.404 C 104.483 185.609,102.871 187.050,101.055 189.793 L 100.000 191.386 100.000 216.631 C 100.000 244.903,100.269 242.431,97.044 243.763 C 93.622 245.177,91.577 245.054,89.916 243.335 L 88.432 241.799 88.316 224.200 C 88.187 204.683,88.093 203.948,85.271 200.413 C 81.787 196.050,78.755 195.200,66.681 195.200 C 51.921 195.200,47.964 197.153,45.779 205.514 C 45.241 207.576,44.701 208.595,43.456 209.900 L 41.833 211.600 33.364 211.600 L 24.894 211.600 23.247 209.953 L 21.600 208.306 21.600 191.668 L 21.600 175.030 23.283 173.315 C 24.209 172.372,25.182 171.600,25.445 171.600 C 26.758 171.600,31.767 169.535,33.192 168.406 C 37.264 165.181,38.400 161.122,38.400 149.790 L 38.400 141.362 39.900 139.907 C 40.906 138.931,42.058 138.293,43.400 137.970 C 49.550 136.490,53.009 133.110,54.417 127.200 C 55.076 124.437,57.394 121.803,59.516 121.405 C 65.680 120.248,69.451 116.779,71.040 110.800 C 71.560 108.845,72.132 107.778,73.350 106.499 L 74.968 104.798 76.649 106.448 C 77.734 107.513,78.423 108.599,78.595 109.516 M310.206 106.807 L 311.775 108.413 310.094 110.094 L 308.413 111.775 306.807 110.206 C 304.870 108.315,304.859 108.190,306.478 106.519 C 308.100 104.846,308.308 104.862,310.206 106.807 M111.011 135.836 C 113.880 136.768,117.683 138.210,121.600 139.851 C 122.370 140.174,123.406 140.745,123.902 141.122 L 124.803 141.806 123.444 143.803 C 120.335 148.373,115.014 153.670,110.463 156.727 L 108.326 158.162 107.663 157.329 C 104.985 153.964,103.704 152.756,101.696 151.703 C 99.259 150.424,95.204 149.035,92.667 148.609 C 90.938 148.318,85.200 143.097,85.200 141.814 C 85.200 140.834,87.379 138.193,89.706 136.354 L 91.672 134.800 99.747 134.800 C 107.348 134.800,108.010 134.861,111.011 135.836 M287.891 145.981 C 277.625 149.262,275.409 162.531,284.077 168.810 C 295.752 177.267,310.148 163.281,302.379 151.031 C 299.483 146.465,293.214 144.280,287.891 145.981 M210.913 152.437 C 215.429 153.956,220.567 155.981,222.744 157.099 L 224.889 158.200 224.698 164.800 C 224.414 174.673,224.673 174.414,214.800 174.698 L 208.200 174.889 207.099 172.744 C 205.979 170.563,203.956 165.428,202.429 160.889 C 201.507 158.148,201.562 157.856,203.503 155.258 C 204.302 154.187,207.689 151.600,208.291 151.600 C 208.365 151.600,209.545 151.977,210.913 152.437 M293.704 153.030 C 295.497 154.427,298.400 157.792,298.400 158.474 C 298.400 159.257,292.479 164.800,291.642 164.800 C 290.467 164.800,285.200 159.533,285.200 158.358 C 285.200 157.521,290.743 151.600,291.526 151.600 C 291.715 151.600,292.695 152.244,293.704 153.030 M311.734 187.700 C 315.013 190.925,315.261 191.407,314.610 193.299 C 313.616 196.191,312.245 197.429,309.192 198.189 C 307.957 198.497,305.202 196.492,303.030 193.704 C 301.201 191.357,301.112 191.679,304.544 188.192 C 308.171 184.506,308.467 184.485,311.734 187.700 M143.875 232.500 C 146.865 235.597,148.923 240.943,147.790 242.671 C 146.906 244.021,144.012 246.912,142.656 247.800 C 141.183 248.765,130.800 243.333,130.800 241.598 C 130.800 239.047,135.290 233.611,138.800 231.913 C 141.727 230.497,141.967 230.525,143.875 232.500 M256.000 262.178 C 246.250 264.923,242.363 274.361,247.727 282.266 C 251.089 287.220,253.808 288.144,265.561 288.321 C 280.617 288.548,285.267 286.317,287.650 277.721 L 288.375 275.108 287.101 273.254 C 285.452 270.854,279.135 264.541,276.728 262.887 L 274.856 261.600 266.328 261.636 C 260.765 261.659,257.174 261.848,256.000 262.178 M278.542 271.458 C 282.276 275.192,282.273 275.017,278.645 278.645 L 275.690 281.600 266.905 281.600 L 258.120 281.600 256.477 280.410 C 254.436 278.931,251.508 275.286,251.861 274.663 C 252.640 273.292,255.123 270.571,256.521 269.558 L 258.120 268.400 266.802 268.400 L 275.484 268.400 278.542 271.458 " stroke="none" fill="#d59758" fill-rule="evenodd"></path><path id="path4" d="M273.457 34.173 C 270.869 35.764,268.831 38.029,266.595 41.800 C 264.392 45.516,262.951 47.128,260.207 48.945 L 258.614 50.000 250.174 50.000 L 241.734 50.000 240.767 48.500 C 237.769 43.850,235.062 43.487,202.091 43.306 C 162.658 43.091,161.684 43.382,160.194 55.805 C 159.808 59.026,159.028 59.826,155.932 60.176 C 147.837 61.092,145.124 63.565,143.775 71.255 C 142.970 75.849,142.362 76.563,138.950 76.925 C 130.812 77.790,126.800 82.083,126.800 89.925 C 126.800 90.567,126.427 91.566,125.971 92.146 L 125.142 93.200 116.271 93.214 C 98.643 93.242,95.407 94.927,93.678 104.977 C 92.673 110.814,90.440 111.371,89.825 105.939 C 88.907 97.830,86.427 95.115,78.683 93.743 C 67.742 91.804,61.375 95.958,60.194 105.805 C 59.808 109.026,59.028 109.826,55.932 110.176 C 47.837 111.092,45.124 113.565,43.775 121.255 C 42.970 125.849,42.362 126.563,38.950 126.925 C 28.649 128.020,26.795 131.286,26.491 148.874 C 26.291 160.409,26.621 159.635,21.600 160.367 C 10.657 161.962,9.996 163.760,10.007 191.935 C 10.019 223.277,10.648 224.053,35.564 223.486 C 51.954 223.113,54.895 221.400,56.403 211.348 C 57.116 206.590,56.645 206.800,66.600 206.800 C 74.165 206.800,75.144 206.875,75.709 207.500 C 76.261 208.111,76.363 210.515,76.506 226.400 C 76.746 253.044,77.448 254.764,88.756 256.418 C 92.677 256.991,92.992 257.311,93.597 261.348 C 94.823 269.524,98.835 273.158,106.678 273.194 C 107.430 273.198,108.398 273.581,109.033 274.127 L 110.111 275.054 109.002 275.927 C 108.391 276.407,107.331 276.803,106.646 276.806 C 96.895 276.852,91.809 284.186,93.745 295.407 C 95.021 302.797,97.307 305.038,104.829 306.273 C 109.601 307.057,109.554 307.003,110.403 312.660 C 111.461 319.711,112.807 322.832,115.391 324.223 L 116.800 324.982 116.800 333.631 L 116.800 342.280 118.009 343.950 C 119.717 346.306,122.104 348.373,125.000 350.000 C 127.896 351.627,130.283 353.694,131.991 356.050 L 133.200 357.720 133.200 366.289 C 133.200 376.650,134.632 379.834,140.561 382.662 C 142.847 383.752,147.012 380.358,150.031 374.945 C 151.937 371.528,154.989 368.437,158.092 366.783 C 161.046 365.209,164.076 362.502,165.663 360.022 L 166.800 358.243 166.800 349.800 L 166.800 341.357 167.949 339.578 C 169.552 337.099,171.710 335.185,175.118 333.223 C 178.801 331.103,180.393 329.705,182.034 327.147 L 183.337 325.117 182.584 323.719 C 181.405 321.528,179.076 319.110,176.886 317.801 C 174.924 316.629,174.866 316.540,174.240 313.690 C 173.237 309.123,173.306 291.590,174.331 290.662 C 175.496 289.608,224.761 289.652,225.717 290.708 C 226.288 291.339,226.374 294.315,226.507 318.008 C 226.701 352.481,226.916 353.399,235.400 355.883 C 238.936 356.918,323.757 357.194,329.127 356.187 C 339.465 354.250,339.800 353.271,339.800 325.000 C 339.800 296.558,339.491 295.685,328.745 293.762 C 323.301 292.787,323.600 293.368,323.600 283.767 C 323.600 265.803,321.556 261.747,311.800 260.347 C 306.010 259.516,305.716 257.226,311.294 256.410 C 322.550 254.764,323.255 253.027,323.494 226.336 C 323.646 209.319,323.706 208.028,324.383 207.415 C 325.311 206.575,326.800 208.213,326.800 210.075 C 326.800 217.917,330.812 222.210,338.950 223.075 C 342.362 223.437,342.970 224.151,343.775 228.745 C 345.478 238.453,347.757 239.664,364.800 239.913 C 390.767 240.292,390.000 241.507,390.000 200.000 C 390.000 159.105,390.501 160.000,367.609 160.000 C 356.551 160.000,357.149 160.272,356.266 154.829 C 355.882 152.463,355.231 150.231,354.518 148.838 C 353.045 145.957,350.582 144.612,345.171 143.734 C 339.728 142.851,340.000 143.449,340.000 132.391 C 340.000 115.034,338.287 111.783,328.400 110.380 C 324.507 109.827,323.204 108.901,323.194 106.678 C 323.158 98.803,319.495 94.789,311.244 93.582 C 307.226 92.995,306.997 92.731,306.404 88.000 C 305.552 81.194,303.304 76.195,300.728 75.377 C 298.935 74.808,303.903 69.013,308.094 66.786 C 311.526 64.962,314.744 61.785,316.613 58.377 C 318.236 55.416,321.488 51.907,323.706 50.724 C 324.890 50.092,327.128 50.031,350.000 50.000 C 378.071 49.962,375.832 50.202,379.392 46.856 C 382.657 43.786,383.462 42.238,382.662 40.561 C 381.748 38.645,378.682 35.441,376.586 34.213 L 374.858 33.200 324.929 33.212 L 275.000 33.225 273.457 34.173 M228.985 50.000 C 232.076 51.554,235.836 55.004,236.913 57.274 C 238.150 59.880,237.888 72.533,236.414 81.437 C 234.868 90.770,234.836 91.565,235.938 93.113 C 237.941 95.925,241.142 98.288,243.884 98.977 C 248.885 100.233,252.270 103.030,253.733 107.113 C 254.210 108.446,255.078 109.723,256.224 110.779 L 257.982 112.400 266.456 112.400 L 274.930 112.400 276.834 113.622 C 280.160 115.756,284.779 122.112,284.804 124.589 C 284.812 125.292,287.812 128.830,289.604 130.248 L 291.313 131.600 300.000 131.600 L 308.687 131.600 310.396 130.248 C 316.052 125.772,316.100 120.972,310.507 118.998 C 303.377 116.482,299.632 112.862,298.039 106.946 C 297.162 103.689,295.689 102.560,290.800 101.399 C 276.713 98.051,275.714 85.018,289.158 79.973 C 293.619 78.299,299.082 83.568,301.627 92.000 C 302.701 95.559,304.207 97.302,306.817 98.005 C 312.871 99.635,316.462 103.321,318.998 110.507 C 319.785 112.736,321.395 114.116,324.000 114.796 C 327.709 115.763,330.987 118.225,333.270 121.756 L 334.800 124.124 334.800 132.802 L 334.800 141.480 335.939 143.052 C 337.652 145.417,340.652 147.888,343.402 149.201 C 346.397 150.630,349.669 153.955,350.977 156.899 C 352.032 159.275,354.612 162.369,356.948 164.061 L 358.520 165.200 367.182 165.200 L 375.843 165.200 377.822 166.442 C 380.594 168.182,381.493 169.061,383.257 171.762 L 384.800 174.124 384.800 199.984 L 384.800 225.843 383.558 227.822 C 381.818 230.594,380.939 231.493,378.238 233.257 L 375.876 234.800 366.635 234.800 L 357.393 234.800 354.858 233.144 C 352.125 231.357,350.613 229.555,348.718 225.824 C 347.113 222.662,343.668 219.329,340.261 217.641 C 336.807 215.930,334.096 213.234,332.364 209.789 C 329.738 204.562,325.862 201.188,323.413 201.996 C 318.499 203.617,318.400 204.062,318.400 224.462 L 318.400 241.627 317.367 243.666 C 315.985 246.392,313.034 249.268,310.098 250.750 C 307.617 252.003,305.945 253.746,304.422 256.667 L 303.553 258.335 304.547 260.267 C 305.935 262.970,307.430 264.449,310.335 265.998 C 316.938 269.517,318.400 272.686,318.400 283.484 L 318.400 291.880 319.558 293.479 C 321.009 295.481,323.600 297.603,326.200 298.916 C 329.539 300.602,331.407 302.201,333.144 304.858 L 334.800 307.393 334.800 325.000 L 334.800 342.607 333.144 345.142 C 331.500 347.658,329.567 349.370,326.716 350.837 C 325.283 351.573,323.779 351.600,283.403 351.600 L 241.573 351.600 239.534 350.567 C 236.928 349.246,233.954 346.272,232.633 343.666 L 231.600 341.627 231.600 316.470 L 231.600 291.313 230.248 289.604 C 229.505 288.665,228.020 287.201,226.948 286.352 L 225.000 284.809 199.932 284.804 L 174.864 284.800 172.650 286.824 C 168.645 290.484,168.653 290.458,168.380 300.795 C 168.084 311.975,167.153 315.195,163.342 318.226 C 160.101 320.802,160.120 320.800,141.491 320.800 L 124.597 320.800 122.781 319.500 C 119.388 317.072,117.967 315.099,115.020 308.729 C 113.694 305.864,110.111 302.476,106.669 300.833 C 103.716 299.424,100.352 296.098,99.165 293.413 L 98.374 291.625 99.420 289.560 C 100.837 286.764,103.770 283.929,106.850 282.378 C 109.988 280.798,111.321 279.736,113.475 277.101 L 115.150 275.053 114.281 273.826 C 112.613 271.471,109.848 269.134,107.086 267.743 C 103.402 265.888,100.839 263.255,98.834 259.268 C 96.610 254.844,95.366 253.574,91.111 251.376 C 86.938 249.221,84.174 246.707,82.633 243.666 L 81.600 241.627 81.600 224.873 L 81.600 208.120 80.410 206.477 C 79.755 205.574,78.299 204.107,77.174 203.217 L 75.128 201.600 66.630 201.600 L 58.131 201.600 56.330 203.004 C 53.988 204.828,52.395 206.839,50.816 209.968 C 47.325 216.884,44.186 218.400,33.357 218.400 C 22.940 218.400,19.824 217.049,16.377 211.039 L 15.208 209.000 15.204 191.562 L 15.200 174.124 16.741 171.740 C 18.524 168.981,20.534 167.197,23.508 165.735 C 26.195 164.414,28.537 162.558,30.250 160.394 L 31.600 158.687 31.600 150.222 C 31.600 139.018,33.112 135.901,40.261 132.359 C 43.871 130.570,47.037 127.405,49.020 123.600 C 50.970 119.859,53.475 117.364,57.040 115.613 C 60.637 113.845,63.845 110.637,65.613 107.040 C 67.226 103.757,69.790 101.034,72.773 99.435 L 74.946 98.271 77.173 99.427 C 80.173 100.985,82.750 103.706,84.382 107.040 C 85.912 110.166,90.249 114.800,91.645 114.800 C 92.980 114.800,97.780 109.721,98.955 107.064 C 102.016 100.143,105.582 98.400,116.686 98.400 C 127.513 98.400,128.825 97.740,132.220 90.585 C 133.988 86.859,136.628 84.158,140.261 82.359 C 143.871 80.570,147.037 77.405,149.020 73.600 C 151.058 69.692,153.439 67.408,157.711 65.265 C 161.724 63.252,163.475 61.512,165.232 57.795 C 166.998 54.056,169.092 51.626,172.038 49.893 L 174.600 48.386 200.400 48.493 L 226.200 48.600 228.985 50.000 M244.022 84.746 C 246.700 86.472,250.385 90.975,249.689 91.671 C 249.524 91.836,248.074 92.248,246.468 92.586 C 240.079 93.930,239.547 93.333,241.045 86.500 C 241.774 83.174,241.674 83.233,244.022 84.746 M292.501 107.500 C 292.844 107.885,293.337 109.617,293.597 111.348 C 294.822 119.512,298.837 123.157,306.646 123.194 C 308.615 123.203,310.240 124.672,309.359 125.645 C 308.730 126.341,307.994 126.400,300.000 126.400 C 289.686 126.400,290.351 126.745,289.664 121.042 C 288.970 115.280,287.665 111.796,285.435 109.752 L 283.637 108.104 286.318 107.491 C 290.010 106.647,291.742 106.650,292.501 107.500 M89.706 136.354 C 87.379 138.193,85.200 140.834,85.200 141.814 C 85.200 143.097,90.938 148.318,92.667 148.609 C 95.204 149.035,99.259 150.424,101.696 151.703 C 103.704 152.756,104.985 153.964,107.663 157.329 L 108.326 158.162 110.463 156.727 C 115.014 153.670,120.335 148.373,123.444 143.803 L 124.803 141.806 123.902 141.122 C 122.964 140.410,122.199 140.062,117.200 138.068 C 109.387 134.953,108.572 134.800,99.747 134.800 L 91.672 134.800 89.706 136.354 M110.563 140.938 L 112.126 141.663 110.293 143.496 L 108.461 145.329 105.330 144.688 C 103.609 144.335,99.770 143.839,96.800 143.584 C 90.392 143.035,89.420 142.546,91.081 140.710 C 92.074 139.614,108.111 139.801,110.563 140.938 M206.331 152.758 C 204.582 153.867,203.023 155.587,202.042 157.489 C 201.674 158.202,201.751 158.874,202.429 160.889 C 203.956 165.428,205.979 170.563,207.099 172.744 L 208.200 174.889 214.800 174.698 C 224.673 174.414,224.414 174.673,224.698 164.800 L 224.889 158.200 222.744 157.099 C 220.184 155.784,209.186 151.600,208.291 151.600 C 208.217 151.600,207.335 152.121,206.331 152.758 M288.192 154.544 C 286.289 156.416,285.200 157.804,285.200 158.358 C 285.200 159.533,290.467 164.800,291.642 164.800 C 292.479 164.800,298.400 159.257,298.400 158.474 C 298.400 157.349,292.651 151.600,291.526 151.600 C 291.338 151.600,289.838 152.925,288.192 154.544 M210.466 157.634 L 212.100 158.467 210.384 160.216 C 208.427 162.210,208.396 162.208,207.408 160.018 C 206.173 157.278,207.595 156.169,210.466 157.634 M292.611 157.612 C 293.286 158.358,293.294 158.477,292.704 159.067 C 291.533 160.239,289.748 158.668,290.804 157.395 C 291.456 156.610,291.734 156.643,292.611 157.612 M304.544 188.192 C 301.112 191.679,301.201 191.357,303.030 193.704 C 305.202 196.492,307.957 198.497,309.192 198.189 C 312.245 197.429,313.616 196.191,314.610 193.299 C 315.261 191.407,315.013 190.925,311.734 187.700 C 308.467 184.485,308.171 184.506,304.544 188.192 M309.350 191.292 C 309.688 191.828,309.629 192.142,309.092 192.680 C 308.111 193.660,306.312 192.070,307.196 191.005 C 307.838 190.231,308.759 190.354,309.350 191.292 M138.800 231.913 C 135.290 233.611,130.800 239.047,130.800 241.598 C 130.800 243.333,141.183 248.765,142.656 247.800 C 144.012 246.912,146.906 244.021,147.790 242.671 C 148.923 240.943,146.865 235.597,143.875 232.500 C 141.967 230.525,141.727 230.497,138.800 231.913 M142.627 240.452 C 143.445 242.034,142.325 243.638,140.949 242.854 C 138.944 241.711,138.944 241.711,140.182 240.419 C 141.637 238.900,141.826 238.903,142.627 240.452 M256.521 269.558 C 255.123 270.571,252.640 273.292,251.861 274.663 C 251.508 275.286,254.436 278.931,256.477 280.410 L 258.120 281.600 266.905 281.600 L 275.690 281.600 278.645 278.645 C 282.273 275.017,282.276 275.192,278.542 271.458 L 275.484 268.400 266.802 268.400 L 258.120 268.400 256.521 269.558 M276.028 274.234 C 277.438 275.932,276.303 276.193,266.997 276.308 C 257.396 276.427,255.854 276.108,257.459 274.335 C 258.402 273.293,275.171 273.201,276.028 274.234 " stroke="none" fill="#efe2bd" fill-rule="evenodd"></path></g></svg>