<?xml version="1.0" encoding="UTF-8" standalone="no"?>
<!-- Created with Inkscape (http://www.inkscape.org/) -->
<svg xmlns:dc="http://purl.org/dc/elements/1.1/" xmlns:cc="http://creativecommons.org/ns#" xmlns:rdf="http://www.w3.org/1999/02/22-rdf-syntax-ns#" xmlns:svg="http://www.w3.org/2000/svg" xmlns="http://www.w3.org/2000/svg" xmlns:xlink="http://www.w3.org/1999/xlink" xmlns:sodipodi="http://sodipodi.sourceforge.net/DTD/sodipodi-0.dtd" xmlns:inkscape="http://www.inkscape.org/namespaces/inkscape" width="401.89636mm" height="372.09344mm" viewBox="0 0 1424.0422 1318.4413" id="svg26936" version="1.1" inkscape:version="0.91 r13725" sodipodi:docname="emojipoo.svg">
  <defs id="defs26938">
    <linearGradient inkscape:collect="always" id="linearGradient27560">
      <stop style="stop-color:#945341;stop-opacity:1;" offset="0" id="stop27562"/>
      <stop style="stop-color:#945341;stop-opacity:0;" offset="1" id="stop27564"/>
    </linearGradient>
    <linearGradient inkscape:collect="always" xlink:href="#linearGradient27560" id="linearGradient27566" x1="413.72794" y1="338.21359" x2="185.85365" y2="347.96967" gradientUnits="userSpaceOnUse"/>
  </defs>
  <sodipodi:namedview id="base" pagecolor="#ffffff" bordercolor="#666666" borderopacity="1.0" inkscape:pageopacity="0.0" inkscape:pageshadow="2" inkscape:zoom="0.26804329" inkscape:cx="875.73215" inkscape:cy="1384.3765" inkscape:document-units="px" inkscape:current-layer="g27583" showgrid="false" fit-margin-top="0" fit-margin-left="0" fit-margin-right="0" fit-margin-bottom="0" inkscape:window-width="1916" inkscape:window-height="1035" inkscape:window-x="4" inkscape:window-y="1" inkscape:window-maximized="1"/>
  <metadata id="metadata26941">
    <rdf:RDF>
      <cc:Work rdf:about="">
        <dc:format>image/svg+xml</dc:format>
        <dc:type rdf:resource="http://purl.org/dc/dcmitype/StillImage"/>
        <dc:title/>
      </cc:Work>
    </rdf:RDF>
  </metadata>
  <g inkscape:label="Layer 1" inkscape:groupmode="layer" id="layer1" transform="translate(965.01786,811.16618)">
    <g id="g27583" transform="matrix(3.2155772,0,0,3.4511877,-1017.004,-1243.4263)">
      <g id="g27631">
        <path style="opacity:1;fill:#a66756;fill-opacity:1;stroke:none;stroke-width:3;stroke-linecap:round;stroke-linejoin:round;stroke-miterlimit:4;stroke-dasharray:none;stroke-opacity:1" d="m 193.91697,125.24967 c -12.70959,12.43838 -29.92871,21.87121 -36.2461,39.47461 -3.63718,11.90794 -5.85965,24.62835 -3.13281,36.9961 1.54041,7.79314 4.06965,15.28319 7.00781,22.63086 a 78.571426,71.428574 0 0 0 -44.55273,55.6953 118.57143,117.14286 0 0 0 -46.136721,84.96484 132.85715,77.14286 0 0 0 -54.68945,62.26367 132.85715,77.14286 0 0 0 132.857421,77.14258 132.85715,77.14286 0 0 0 61.4668,-8.79297 162.85715,77.14286 0 0 0 85.67578,11.65039 162.85715,77.14286 0 0 0 162.85742,-77.14257 162.85715,77.14286 0 0 0 -35.10156,-47.83008 95.714287,87.14286 0 0 0 0.8164,-10.74219 95.714287,87.14286 0 0 0 -94.59765,-87.0918 54.285713,72.85714 0 0 0 -36.81836,-61.96483 c 0.087,-1.29463 0.11171,-2.60504 0.0527,-3.93359 0.16601,-12.48949 -8.42064,-23.49029 -19.52344,-28.4629 -14.22489,-7.13212 -30.35637,-8.21829 -45.58203,-11.88476 -15.11771,-4.92341 -22.40112,-20.56871 -27.08789,-34.53516 -2.54673,-5.59754 -3.87305,-15.54917 -7.26562,-18.4375 z" id="path27484" inkscape:connector-curvature="0"/>
        <path inkscape:connector-curvature="0" id="path27550" d="m 193.91697,125.24967 c -12.70959,12.43838 -29.92871,21.87121 -36.2461,39.47461 -3.63718,11.90794 -5.85965,24.62835 -3.13281,36.9961 1.54041,7.79314 4.06965,15.28319 7.00781,22.63086 a 78.571426,71.428574 0 0 0 -44.55273,55.6953 118.57143,117.14286 0 0 0 -46.136721,84.96484 132.85715,77.14286 0 0 0 -54.68945,62.26367 132.85715,77.14286 0 0 0 132.857421,77.14258 132.85715,77.14286 0 0 0 61.4668,-8.79297 162.85715,77.14286 0 0 0 85.67578,11.65039 162.85715,77.14286 0 0 0 162.85742,-77.14257 162.85715,77.14286 0 0 0 -35.10156,-47.83008 95.714287,87.14286 0 0 0 0.8164,-10.74219 95.714287,87.14286 0 0 0 -94.59765,-87.0918 54.285713,72.85714 0 0 0 -36.81836,-61.96483 c 0.087,-1.29463 0.11171,-2.60504 0.0527,-3.93359 0.16601,-12.48949 -8.42064,-23.49029 -19.52344,-28.4629 -14.22489,-7.13212 -30.35637,-8.21829 -45.58203,-11.88476 -15.11771,-4.92341 -22.40112,-20.56871 -27.08789,-34.53516 -2.54673,-5.59754 -3.87305,-15.54917 -7.26562,-18.4375 z" style="opacity:1;fill:url(#linearGradient27566);fill-opacity:1;stroke:none;stroke-width:3;stroke-linecap:round;stroke-linejoin:round;stroke-miterlimit:4;stroke-dasharray:none;stroke-opacity:1"/>
        <ellipse style="opacity:1;fill:#ffffff;fill-opacity:1;stroke:none;stroke-width:3;stroke-linecap:round;stroke-linejoin:round;stroke-miterlimit:4;stroke-dasharray:none;stroke-opacity:1" id="path27568" cx="185.10638" cy="322.57498" rx="38.297871" ry="46.80851"/>
        <ellipse ry="46.80851" rx="38.297871" cy="320.44733" cx="272.34042" id="ellipse27570" style="opacity:1;fill:#ffffff;fill-opacity:1;stroke:none;stroke-width:3;stroke-linecap:round;stroke-linejoin:round;stroke-miterlimit:4;stroke-dasharray:none;stroke-opacity:1"/>
        <ellipse style="opacity:1;fill:#000000;fill-opacity:1;stroke:none;stroke-width:3;stroke-linecap:round;stroke-linejoin:round;stroke-miterlimit:4;stroke-dasharray:none;stroke-opacity:1" id="path27572" cx="190.1638" cy="319.96298" rx="15.957447" ry="20.212767"/>
        <ellipse ry="20.212767" rx="15.957447" cy="319.38348" cx="264.37018" id="ellipse27574" style="opacity:1;fill:#000000;fill-opacity:1;stroke:none;stroke-width:3;stroke-linecap:round;stroke-linejoin:round;stroke-miterlimit:4;stroke-dasharray:none;stroke-opacity:1"/>
        <path style="opacity:1;fill:#000000;fill-opacity:1;stroke:none;stroke-width:3;stroke-linecap:round;stroke-linejoin:round;stroke-miterlimit:4;stroke-dasharray:none;stroke-opacity:1" id="path27576" sodipodi:type="arc" sodipodi:cx="235.1064" sodipodi:cy="393.00943" sodipodi:rx="118.08511" sodipodi:ry="63.608089" sodipodi:start="0" sodipodi:end="3.1867115" d="m 353.19151,393.00943 a 118.08511,63.608089 0 0 1 -60.58719,55.55829 118.08511,63.608089 0 0 1 -119.58935,-1.45348 118.08511,63.608089 0 0 1 -55.87351,-56.97376 l 117.96494,2.86895 z"/>
        <path inkscape:connector-curvature="0" style="opacity:1;fill:#d74d83;fill-opacity:1;stroke:none;stroke-width:3;stroke-linecap:round;stroke-linejoin:round;stroke-miterlimit:4;stroke-dasharray:none;stroke-opacity:1" d="m 237.04688,409.53516 a 81.488998,30.928299 0 0 0 -43.54493,4.61914 81.488998,30.928299 0 0 0 -38.34179,24.15625 l -0.27149,-0.004 a 80.563454,19.647591 0 0 0 0.006,1.50195 81.488998,30.928299 0 0 0 0.0488,2.04883 l 0.66211,-0.0117 a 80.563454,19.647591 0 0 0 37.40234,14.0586 80.563454,19.647591 0 0 0 81.58985,0.44922 80.563454,19.647591 0 0 0 41.07617,-15.89063 l 2.16406,0 a 81.488998,30.928299 0 0 0 -41.80859,-27.01562 81.488998,30.928299 0 0 0 -38.98242,-3.91211 z" id="path27578"/>
      </g>
    </g>
  </g>
</svg>